<svg width="25" height="24" viewBox="0 0 25 24" fill="none" xmlns="http://www.w3.org/2000/svg">
<path fill-rule="evenodd" clip-rule="evenodd" d="M10.2128 19.8565C10.4288 19.8565 10.6448 19.8565 10.7888 19.9285C11.1488 20.0005 11.4368 20.2165 11.7248 20.4325C12.0848 20.7205 12.4448 20.9365 12.8048 20.9365C13.1648 20.9365 13.5248 20.7205 13.8848 20.4325C14.1728 20.2165 14.4608 20.0005 14.8208 19.9285C15.1808 19.8565 15.5408 19.8565 15.9008 19.8565C16.3328 19.8565 16.7648 19.9285 17.0528 19.7125C17.3408 19.5685 17.5568 19.1365 17.7728 18.7765C17.9168 18.4165 18.1328 18.1285 18.3488 17.8405C18.5648 17.6245 18.9248 17.4085 19.2848 17.2645C19.7168 17.0485 20.0768 16.9045 20.2208 16.5445C20.3648 16.2565 20.3648 15.8245 20.3648 15.3925C20.3648 15.0325 20.2928 14.6725 20.4368 14.3125C20.5088 13.9525 20.7248 13.6645 20.9408 13.3765C21.2288 13.0165 21.4448 12.6565 21.4448 12.2965C21.4448 11.9365 21.2288 11.5765 20.9408 11.2165C20.7248 10.8565 20.5088 10.5685 20.4368 10.2805C20.3648 9.92049 20.3648 9.56049 20.3648 9.20049C20.3648 8.76849 20.4368 8.33649 20.2208 8.04849C20.0768 7.76049 19.6448 7.54449 19.2848 7.32849C18.9248 7.18449 18.6368 6.96849 18.3488 6.75249C18.1328 6.46449 17.9888 6.10449 17.8448 5.81649C17.6288 5.38449 17.4848 5.02449 17.1248 4.88049C16.8368 4.73649 16.4048 4.73649 15.9728 4.73649C15.6128 4.73649 15.1808 4.80849 14.8928 4.66449C14.5328 4.59249 14.2448 4.37649 13.8848 4.16049C13.5248 3.87249 13.1648 3.65649 12.8048 3.65649C12.4448 3.65649 12.0848 3.87249 11.7248 4.16049C11.3648 4.37649 11.0768 4.59249 10.7888 4.66449C10.4288 4.73649 10.0688 4.73649 9.70879 4.73649C9.20479 4.66449 8.7728 4.66449 8.4848 4.80849C8.19679 5.02449 7.9808 5.38449 7.7648 5.74449C7.6208 6.10449 7.4768 6.46449 7.1888 6.68049C6.9728 6.96849 6.6128 7.11249 6.3248 7.25649C5.89279 7.47249 5.53279 7.68849 5.31679 7.97649C5.17279 8.26449 5.1728 8.69649 5.1728 9.12849C5.1728 9.48849 5.24479 9.84849 5.10079 10.2085C5.10079 10.5685 4.8848 10.8565 4.6688 11.2165C4.3808 11.5765 4.16479 11.9365 4.16479 12.2965C4.16479 12.6565 4.3808 13.0165 4.6688 13.3765C4.8848 13.7365 5.1008 14.0245 5.1728 14.3125C5.2448 14.6725 5.24479 15.0325 5.24479 15.3925C5.24479 15.8245 5.1728 16.2565 5.3888 16.5445C5.5328 16.8325 5.96479 17.0485 6.3248 17.2645C6.68479 17.4085 6.9728 17.6245 7.26079 17.8405C7.47679 18.1285 7.6208 18.4885 7.7648 18.7765C7.9808 19.2085 8.12479 19.5685 8.4848 19.7125C8.7728 19.8565 9.20479 19.8565 9.6368 19.8565C9.8528 19.8565 9.9968 19.8565 10.2128 19.8565Z" fill="black"/>
<path d="M11.7013 12.1201C11.4925 12.1201 11.3063 12.0842 11.1429 12.0125C10.9805 11.9408 10.8513 11.8411 10.7554 11.7135C10.6604 11.5849 10.6088 11.4357 10.6003 11.2659H10.9989C11.0074 11.3703 11.0433 11.4605 11.1065 11.5364C11.1698 11.6112 11.2526 11.6693 11.3548 11.7104C11.4571 11.7515 11.5705 11.7721 11.6949 11.7721C11.8341 11.7721 11.9575 11.7478 12.0651 11.6993C12.1726 11.6507 12.257 11.5833 12.3182 11.4969C12.3793 11.4104 12.4099 11.3101 12.4099 11.1963C12.4099 11.0771 12.3804 10.9722 12.3213 10.8815C12.2623 10.7898 12.1758 10.7181 12.0619 10.6664C11.948 10.6147 11.8088 10.5889 11.6443 10.5889H11.3849V10.2409H11.6443C11.773 10.2409 11.8858 10.2177 11.9828 10.1713C12.0809 10.1249 12.1574 10.0595 12.2122 9.97516C12.2681 9.8908 12.296 9.79168 12.296 9.67778C12.296 9.56811 12.2718 9.47268 12.2232 9.39148C12.1747 9.31029 12.1062 9.24701 12.0176 9.20167C11.9301 9.15633 11.8267 9.13366 11.7076 9.13366C11.5958 9.13366 11.4904 9.15422 11.3912 9.19535C11.2932 9.23542 11.213 9.29394 11.1508 9.37092C11.0886 9.44685 11.0548 9.53859 11.0495 9.64615H10.6699C10.6763 9.47638 10.7274 9.32769 10.8233 9.20009C10.9193 9.07144 11.0448 8.97126 11.1999 8.89955C11.3559 8.82785 11.5272 8.79199 11.7139 8.79199C11.9143 8.79199 12.0861 8.83259 12.2296 8.91379C12.373 8.99393 12.4832 9.09991 12.5602 9.23173C12.6372 9.36354 12.6757 9.5059 12.6757 9.65881C12.6757 9.84123 12.6277 9.99677 12.5317 10.1254C12.4368 10.2541 12.3076 10.3432 12.1441 10.3928V10.418C12.3487 10.4518 12.5085 10.5388 12.6234 10.679C12.7384 10.8182 12.7959 10.9907 12.7959 11.1963C12.7959 11.3723 12.7479 11.5306 12.6519 11.6708C12.557 11.81 12.4273 11.9196 12.2628 11.9998C12.0983 12.08 11.9111 12.1201 11.7013 12.1201ZM14.4994 12.1201C14.2611 12.1201 14.0581 12.0552 13.8905 11.9255C13.7227 11.7947 13.5947 11.6054 13.5061 11.3577C13.4175 11.1087 13.3732 10.8083 13.3732 10.456C13.3732 10.1059 13.4175 9.80696 13.5061 9.55916C13.5957 9.31029 13.7244 9.12048 13.892 8.98971C14.0608 8.8579 14.2632 8.79199 14.4994 8.79199C14.7356 8.79199 14.9375 8.8579 15.1052 8.98971C15.274 9.12048 15.4026 9.31029 15.4912 9.55916C15.5808 9.80696 15.6257 10.1059 15.6257 10.456C15.6257 10.8083 15.5814 11.1087 15.4928 11.3577C15.4042 11.6054 15.2761 11.7947 15.1084 11.9255C14.9407 12.0552 14.7377 12.1201 14.4994 12.1201ZM14.4994 11.7721C14.7356 11.7721 14.9191 11.6581 15.0498 11.4304C15.1806 11.2026 15.246 10.8779 15.246 10.456C15.246 10.1755 15.2159 9.93667 15.1558 9.73947C15.0968 9.54228 15.0114 9.39201 14.8996 9.28867C14.7889 9.18532 14.6555 9.13366 14.4994 9.13366C14.2653 9.13366 14.0824 9.24912 13.9505 9.48006C13.8187 9.70995 13.7528 10.0353 13.7528 10.456C13.7528 10.7365 13.7824 10.9748 13.8414 11.1709C13.9004 11.3672 13.9853 11.5163 14.0961 11.6186C14.2078 11.7209 14.3423 11.7721 14.4994 11.7721Z" fill="white"/>
<path d="M10.5915 15.4455H9.8645V13.0896H10.6238C10.8523 13.0896 11.0479 13.1367 11.2104 13.2311C11.373 13.3246 11.4976 13.4592 11.5843 13.6349C11.6709 13.8097 11.7143 14.0191 11.7143 14.2629C11.7143 14.5084 11.6705 14.7196 11.5832 14.8968C11.4957 15.0732 11.3684 15.2089 11.2012 15.304C11.0341 15.3983 10.8308 15.4455 10.5915 15.4455ZM10.1498 15.1924H10.5732C10.7679 15.1924 10.9293 15.1548 11.0574 15.0797C11.1855 15.0045 11.281 14.8976 11.3439 14.7588C11.4067 14.6199 11.4382 14.4546 11.4382 14.2629C11.4382 14.0727 11.4071 13.9091 11.345 13.7718C11.2829 13.6337 11.1901 13.5278 11.0666 13.4542C10.9431 13.3798 10.7894 13.3427 10.6053 13.3427H10.1498V15.1924ZM12.1788 15.4455H11.8796L12.7447 13.0896H13.0392L13.9043 15.4455H13.6052L12.9012 13.4623H12.8827L12.1788 15.4455ZM12.2892 14.5252H13.4947V14.7783H12.2892V14.5252ZM13.8283 13.0896H14.1551L14.8085 14.1893H14.836L15.4895 13.0896H15.8162L14.965 14.4746V15.4455H14.6797V14.4746L13.8283 13.0896Z" fill="white"/>
<path d="M12.7328 18.4882C16.1525 18.4882 18.9248 15.716 18.9248 12.2962C18.9248 8.87651 16.1525 6.10425 12.7328 6.10425C9.31302 6.10425 6.54077 8.87651 6.54077 12.2962C6.54077 15.716 9.31302 18.4882 12.7328 18.4882Z" stroke="#FFFEF2" stroke-width="0.4356"/>
</svg>
