<svg width="25" height="24" viewBox="0 0 25 24" fill="none" xmlns="http://www.w3.org/2000/svg">
<path d="M5.47998 4.5H23.48L21.23 14.25H7.72998M21.23 17.25H8.47998L4.72998 1.5H2.47998" stroke="#1C1C1C" stroke-width="1.5" stroke-linecap="round" stroke-linejoin="round"/>
<path d="M19.73 21.75C20.5584 21.75 21.23 21.0784 21.23 20.25C21.23 19.4216 20.5584 18.75 19.73 18.75C18.9016 18.75 18.23 19.4216 18.23 20.25C18.23 21.0784 18.9016 21.75 19.73 21.75Z" stroke="#1C1C1C" stroke-width="1.5" stroke-linecap="round" stroke-linejoin="round"/>
<path d="M9.97998 21.75C10.8084 21.75 11.48 21.0784 11.48 20.25C11.48 19.4216 10.8084 18.75 9.97998 18.75C9.15155 18.75 8.47998 19.4216 8.47998 20.25C8.47998 21.0784 9.15155 21.75 9.97998 21.75Z" stroke="#1C1C1C" stroke-width="1.5" stroke-linecap="round" stroke-linejoin="round"/>
</svg>
