<svg width="39" height="28" viewBox="0 0 39 28" fill="none" xmlns="http://www.w3.org/2000/svg">
<path fill-rule="evenodd" clip-rule="evenodd" d="M17.3132 5.19941C16.8909 5.19941 14.5106 5.19941 14.6506 2.73545C14.8025 0.0625919 10.7339 0.830121 6.2083 1.68387C4.45089 2.01541 2.62456 2.35994 0.949684 2.52106C0.369024 2.57692 -0.0735337 3.10671 0.0551043 3.67561C0.508884 5.68281 1.4126 6.38361 2.5669 6.40021C4.02302 9.29261 5.45245 8.58311 7.61032 7.51211C7.93146 7.35271 8.26874 7.18541 8.62463 7.02061C7.83111 7.73591 7.2422 8.20661 6.8255 8.53961C6.54839 8.76101 6.34733 8.92171 6.213 9.05301C7.98057 10.6886 9.29758 9.13371 10.4752 7.74321C11.0716 7.03911 11.6322 6.37711 12.1975 6.19311C12.1975 6.19311 10.1392 8.66071 9.40698 10.0295C11.4088 11.0647 12.9572 7.43491 13.5671 6.00521C13.683 5.73341 13.765 5.54121 13.8098 5.47561C15.4915 6.98131 17.1731 6.16001 17.3132 5.19941ZM20.7628 5.19951C21.1851 5.19951 23.5654 5.19951 23.4254 2.73552C23.2735 0.0626615 27.3421 0.830192 31.8677 1.68394C33.6251 2.01548 35.4514 2.36001 37.1263 2.52113C37.707 2.57699 38.1495 3.10671 38.0209 3.67571C37.5671 5.68291 36.6634 6.38371 35.5091 6.40031C34.053 9.29261 32.6235 8.58321 30.4657 7.51221C30.1445 7.35281 29.8072 7.18541 29.4514 7.02071C30.2449 7.73601 30.8338 8.20671 31.2505 8.53971C31.5277 8.76121 31.7286 8.92181 31.863 9.05301C30.0954 10.6887 28.7784 9.13371 27.6008 7.74331C27.0044 7.03911 26.4438 6.37721 25.8785 6.19311C25.8785 6.19311 27.9368 8.66071 28.669 10.0296C26.6672 11.0648 25.1188 7.43501 24.5089 6.00531C24.393 5.73351 24.311 5.54121 24.2662 5.47561C22.5845 6.98141 20.9029 6.16011 20.7628 5.19951ZM19.6363 4.78771C20.3019 4.55241 20.7775 3.92961 20.7775 3.19821C20.7775 2.26499 20.003 1.50842 19.0475 1.50842C18.0921 1.50842 17.3175 2.26499 17.3175 3.19821C17.3175 3.92941 17.7929 4.55201 18.4581 4.78751V12.543L18.3882 12.5258C15.9087 11.9179 13.7049 11.3775 15.0096 8.98061C15.5843 9.12141 17.7507 9.54381 18.0371 8.55811C18.1782 7.71321 16.7354 6.86801 15.5832 6.86831C14.2868 6.86831 12.6987 7.71321 12.6987 9.96631C12.6987 12.4373 14.3547 13.2206 16.2565 13.6193C15.3564 14.0902 14.7717 14.7845 14.7258 15.5639L14.7182 15.5991C14.7182 15.6669 14.7216 15.733 14.7282 15.7975C14.803 16.7319 15.6525 17.5401 16.8877 17.9815C16.0948 18.3944 15.587 19.0296 15.587 19.7421C15.587 20.3703 15.9817 20.9384 16.6185 21.347C16.415 21.5208 16.2997 21.7727 16.2997 22.1382C16.2997 22.8357 16.7196 23.4558 17.3711 23.8502C17.2477 24.0359 17.1702 24.2795 17.1702 24.6115C17.1702 25.1748 17.4712 26.2581 19.0358 27.0427V26.8223L19.037 26.8229V27.0427C20.6016 26.2581 20.9193 25.1748 20.9193 24.6115C20.9193 24.2759 20.8402 24.0306 20.7144 23.8442C21.3602 23.4495 21.7759 22.8321 21.7759 22.1382C21.7759 21.7775 21.6636 21.5274 21.465 21.3539C22.1081 20.9448 22.5073 20.3738 22.5073 19.7421C22.5073 19.0298 21.9997 18.3947 21.2072 17.9819C22.5017 17.5195 23.3729 16.6542 23.3729 15.6631C23.3729 14.843 22.7766 14.1092 21.8375 13.6184C23.7374 13.2194 25.3908 12.4353 25.3908 9.96631C25.3908 7.71321 23.8027 6.86831 22.5063 6.86831C21.3541 6.86801 19.9113 7.71321 20.0524 8.55811C20.3388 9.54381 22.5052 9.12141 23.0799 8.98061C24.3846 11.3775 22.1808 11.9179 19.7013 12.5258L19.6363 12.5418V4.78771ZM19.6363 16.8857C20.6256 16.743 21.3553 16.2482 21.3553 15.6599C21.3553 15.0715 20.6256 14.5768 19.6363 14.434V16.8857ZM18.4581 14.4344C17.4703 14.5777 16.742 15.0721 16.742 15.6599C16.742 16.2477 17.4703 16.742 18.4581 16.8853V14.4344ZM21.0645 19.7403C21.0645 19.2327 20.4631 18.8035 19.6363 18.6626V20.8179C20.4631 20.677 21.0645 20.2478 21.0645 19.7403ZM17.0278 19.7403C17.0278 20.2483 17.6303 20.6777 18.4581 20.8182V18.6623C17.6303 18.8028 17.0278 19.2322 17.0278 19.7403Z" fill="white"/>
</svg>
