<svg width="39" height="11" viewBox="0 0 39 11" fill="none" xmlns="http://www.w3.org/2000/svg">
<path fill-rule="evenodd" clip-rule="evenodd" d="M17.3132 5.19941C16.8909 5.19941 14.5106 5.19941 14.6506 2.73545C14.8025 0.0625919 10.7339 0.830121 6.2083 1.68387C4.45089 2.01541 2.62456 2.35994 0.949684 2.52106C0.369024 2.57692 -0.0735337 3.10671 0.0551043 3.67561C0.508884 5.68281 1.4126 6.38361 2.5669 6.40021C4.02302 9.29261 5.45245 8.58311 7.61032 7.51211C7.93146 7.35271 8.26873 7.18541 8.62463 7.02061C7.83109 7.73591 7.24218 8.20661 6.82547 8.53961C6.54832 8.76111 6.34734 8.92171 6.213 9.05301C7.98057 10.6886 9.29758 9.13371 10.4752 7.74321C11.0716 7.03911 11.6322 6.37711 12.1975 6.19311C12.1975 6.19311 10.1392 8.66071 9.40698 10.0295C11.4088 11.0647 12.9572 7.43491 13.5671 6.00521C13.683 5.73341 13.765 5.54121 13.8098 5.47561C15.4915 6.98131 17.1731 6.16001 17.3132 5.19941ZM20.7628 5.19951C21.1851 5.19951 23.5654 5.19951 23.4254 2.73552C23.2735 0.0626615 27.3421 0.830192 31.8677 1.68394C33.6251 2.01548 35.4514 2.36001 37.1263 2.52113C37.707 2.57699 38.1495 3.10671 38.0209 3.67571C37.5671 5.68291 36.6634 6.38371 35.5091 6.40031C34.053 9.29261 32.6235 8.58321 30.4657 7.51221C30.1445 7.35281 29.8072 7.18541 29.4514 7.02071C30.2449 7.73601 30.8338 8.20671 31.2505 8.53971C31.5277 8.76121 31.7286 8.92181 31.863 9.05301C30.0954 10.6887 28.7784 9.13371 27.6008 7.74331C27.0044 7.03911 26.4438 6.37721 25.8785 6.19311C25.8785 6.19311 27.9368 8.66071 28.669 10.0296C26.6672 11.0648 25.1188 7.43501 24.5089 6.00531C24.393 5.73351 24.311 5.54121 24.2662 5.47561C22.5845 6.98141 20.9029 6.16011 20.7628 5.19951Z" fill="#FFE8AD"/>
</svg>
